<svg width="83" height="45" viewBox="0 0 83 45" fill="none" xmlns="http://www.w3.org/2000/svg">
<path d="M2.78144 36V10.584H6.81344L16.8214 26.172H14.7694L24.7414 10.584H28.8094V36H23.1574V20.124L24.1654 20.376L17.6494 30.528H13.9054L7.42544 20.376L8.39744 20.124V36H2.78144ZM33.2158 36L43.2958 10.584H48.4078L58.3798 36H52.4038L44.7718 14.904H46.8238L39.0838 36H33.2158ZM38.9398 31.392V26.784H52.7998V31.392H38.9398ZM66.8291 26.748V22.356H72.3011C72.9971 22.356 73.6331 22.212 74.2091 21.924C74.7851 21.636 75.2411 21.216 75.5771 20.664C75.9131 20.112 76.0811 19.44 76.0811 18.648C76.0811 17.88 75.9131 17.22 75.5771 16.668C75.2411 16.116 74.7851 15.696 74.2091 15.408C73.6331 15.12 72.9971 14.976 72.3011 14.976H66.8291V10.584H73.1291C74.7371 10.584 76.1891 10.908 77.4851 11.556C78.7811 12.204 79.8011 13.14 80.5451 14.364C81.3131 15.564 81.6971 16.992 81.6971 18.648C81.6971 20.304 81.3131 21.744 80.5451 22.968C79.8011 24.168 78.7811 25.104 77.4851 25.776C76.1891 26.424 74.7371 26.748 73.1291 26.748H66.8291ZM62.5091 36V10.584H68.1611V36H62.5091Z" fill="black" fill-opacity="0.15"/>
<path d="M2.78144 36H1.78144V37H2.78144V36ZM2.78144 10.584V9.584H1.78144V10.584H2.78144ZM6.81344 10.584L7.65493 10.0437L7.35977 9.584H6.81344V10.584ZM16.8214 26.172V27.172H18.6518L17.6629 25.6317L16.8214 26.172ZM14.7694 26.172L13.9271 25.6331L12.9426 27.172H14.7694V26.172ZM24.7414 10.584V9.584H24.194L23.8991 10.0451L24.7414 10.584ZM28.8094 10.584H29.8094V9.584H28.8094V10.584ZM28.8094 36V37H29.8094V36H28.8094ZM23.1574 36H22.1574V37H23.1574V36ZM23.1574 20.124L23.4 19.1539L22.1574 18.8432V20.124H23.1574ZM24.1654 20.376L25.007 20.9162L25.7595 19.7437L24.408 19.4059L24.1654 20.376ZM17.6494 30.528V31.528H18.1959L18.491 31.0682L17.6494 30.528ZM13.9054 30.528L13.0625 31.066L13.3574 31.528H13.9054V30.528ZM7.42544 20.376L7.17448 19.408L5.84176 19.7535L6.58252 20.914L7.42544 20.376ZM8.39744 20.124H9.39744V18.8317L8.14648 19.156L8.39744 20.124ZM8.39744 36V37H9.39744V36H8.39744ZM3.78144 36V10.584H1.78144V36H3.78144ZM2.78144 11.584H6.81344V9.584H2.78144V11.584ZM5.97195 11.1243L15.9799 26.7123L17.6629 25.6317L7.65493 10.0437L5.97195 11.1243ZM16.8214 25.172H14.7694V27.172H16.8214V25.172ZM15.6118 26.7109L25.5838 11.1229L23.8991 10.0451L13.9271 25.6331L15.6118 26.7109ZM24.7414 11.584H28.8094V9.584H24.7414V11.584ZM27.8094 10.584V36H29.8094V10.584H27.8094ZM28.8094 35H23.1574V37H28.8094V35ZM24.1574 36V20.124H22.1574V36H24.1574ZM22.9149 21.0941L23.9229 21.3461L24.408 19.4059L23.4 19.1539L22.9149 21.0941ZM23.3239 19.8358L16.8079 29.9878L18.491 31.0682L25.007 20.9162L23.3239 19.8358ZM17.6494 29.528H13.9054V31.528H17.6494V29.528ZM14.7484 29.99L8.26836 19.838L6.58252 20.914L13.0625 31.066L14.7484 29.99ZM7.6764 21.344L8.6484 21.092L8.14648 19.156L7.17448 19.408L7.6764 21.344ZM7.39744 20.124V36H9.39744V20.124H7.39744ZM8.39744 35H2.78144V37H8.39744V35ZM33.2158 36L32.2862 35.6313L31.7434 37H33.2158V36ZM43.2958 10.584V9.584H42.6166L42.3662 10.2153L43.2958 10.584ZM48.4078 10.584L49.3387 10.2188L49.0896 9.584H48.4078V10.584ZM58.3798 36V37H59.8464L59.3107 35.6348L58.3798 36ZM52.4038 36L51.4634 36.3402L51.7021 37H52.4038V36ZM44.7718 14.904V13.904H43.3466L43.8314 15.2442L44.7718 14.904ZM46.8238 14.904L47.7626 15.2484L48.2559 13.904H46.8238V14.904ZM39.0838 36V37H39.7821L40.0226 36.3444L39.0838 36ZM38.9398 31.392H37.9398V32.392H38.9398V31.392ZM38.9398 26.784V25.784H37.9398V26.784H38.9398ZM52.7998 26.784H53.7998V25.784H52.7998V26.784ZM52.7998 31.392V32.392H53.7998V31.392H52.7998ZM34.1453 36.3687L44.2253 10.9527L42.3662 10.2153L32.2862 35.6313L34.1453 36.3687ZM43.2958 11.584H48.4078V9.584H43.2958V11.584ZM47.4769 10.9492L57.4489 36.3652L59.3107 35.6348L49.3387 10.2188L47.4769 10.9492ZM58.3798 35H52.4038V37H58.3798V35ZM53.3441 35.6598L45.7121 14.5638L43.8314 15.2442L51.4634 36.3402L53.3441 35.6598ZM44.7718 15.904H46.8238V13.904H44.7718V15.904ZM45.885 14.5596L38.145 35.6556L40.0226 36.3444L47.7626 15.2484L45.885 14.5596ZM39.0838 35H33.2158V37H39.0838V35ZM39.9398 31.392V26.784H37.9398V31.392H39.9398ZM38.9398 27.784H52.7998V25.784H38.9398V27.784ZM51.7998 26.784V31.392H53.7998V26.784H51.7998ZM52.7998 30.392H38.9398V32.392H52.7998V30.392ZM66.8291 26.748H65.8291V27.748H66.8291V26.748ZM66.8291 22.356V21.356H65.8291V22.356H66.8291ZM74.2091 21.924L73.7619 21.0296H73.7619L74.2091 21.924ZM74.2091 15.408L73.7619 16.3024L74.2091 15.408ZM66.8291 14.976H65.8291V15.976H66.8291V14.976ZM66.8291 10.584V9.584H65.8291V10.584H66.8291ZM80.5451 14.364L79.6906 14.8834L79.6966 14.8933L79.7028 14.9031L80.5451 14.364ZM80.5451 22.968L79.698 22.4365L79.6952 22.4411L80.5451 22.968ZM77.4851 25.776L77.9323 26.6704L77.9389 26.6671L77.9454 26.6638L77.4851 25.776ZM62.5091 36H61.5091V37H62.5091V36ZM62.5091 10.584V9.584H61.5091V10.584H62.5091ZM68.1611 10.584H69.1611V9.584H68.1611V10.584ZM68.1611 36V37H69.1611V36H68.1611ZM67.8291 26.748V22.356H65.8291V26.748H67.8291ZM66.8291 23.356H72.3011V21.356H66.8291V23.356ZM72.3011 23.356C73.1395 23.356 73.9304 23.1814 74.6563 22.8184L73.7619 21.0296C73.3357 21.2426 72.8546 21.356 72.3011 21.356V23.356ZM74.6563 22.8184C75.4011 22.446 75.9979 21.896 76.4313 21.1839L74.7229 20.1441C74.4843 20.536 74.1691 20.826 73.7619 21.0296L74.6563 22.8184ZM76.4313 21.1839C76.8821 20.4434 77.0811 19.5821 77.0811 18.648H75.0811C75.0811 19.2979 74.9441 19.7806 74.7229 20.1441L76.4313 21.1839ZM77.0811 18.648C77.0811 17.7315 76.8793 16.884 76.4313 16.1481L74.7229 17.1879C74.9469 17.556 75.0811 18.0285 75.0811 18.648H77.0811ZM76.4313 16.1481C75.9979 15.436 75.4011 14.886 74.6563 14.5136L73.7619 16.3024C74.1691 16.506 74.4843 16.796 74.7229 17.1879L76.4313 16.1481ZM74.6563 14.5136C73.9304 14.1506 73.1395 13.976 72.3011 13.976V15.976C72.8546 15.976 73.3357 16.0894 73.7619 16.3024L74.6563 14.5136ZM72.3011 13.976H66.8291V15.976H72.3011V13.976ZM67.8291 14.976V10.584H65.8291V14.976H67.8291ZM66.8291 11.584H73.1291V9.584H66.8291V11.584ZM73.1291 11.584C74.5991 11.584 75.8954 11.8792 77.0379 12.4504L77.9323 10.6616C76.4828 9.93682 74.8751 9.584 73.1291 9.584V11.584ZM77.0379 12.4504C78.1676 13.0153 79.0455 13.8222 79.6906 14.8834L81.3996 13.8446C80.5567 12.4578 79.3946 11.3927 77.9323 10.6616L77.0379 12.4504ZM79.7028 14.9031C80.352 15.9174 80.6971 17.1514 80.6971 18.648H82.6971C82.6971 16.8326 82.2742 15.2106 81.3874 13.8249L79.7028 14.9031ZM80.6971 18.648C80.6971 20.1441 80.3522 21.394 79.698 22.4365L81.3922 23.4995C82.274 22.094 82.6971 20.4639 82.6971 18.648H80.6971ZM79.6952 22.4411C79.0495 23.4825 78.1665 24.2963 77.0248 24.8882L77.9454 26.6638C79.3957 25.9117 80.5527 24.8535 81.395 23.4949L79.6952 22.4411ZM77.0379 24.8816C75.8954 25.4528 74.5991 25.748 73.1291 25.748V27.748C74.8751 27.748 76.4828 27.3952 77.9323 26.6704L77.0379 24.8816ZM73.1291 25.748H66.8291V27.748H73.1291V25.748ZM63.5091 36V10.584H61.5091V36H63.5091ZM62.5091 11.584H68.1611V9.584H62.5091V11.584ZM67.1611 10.584V36H69.1611V10.584H67.1611ZM68.1611 35H62.5091V37H68.1611V35Z" fill="white" fill-opacity="0.55"/>
</svg>
