<svg width="71" height="22" viewBox="0 0 71 22" fill="none" xmlns="http://www.w3.org/2000/svg">
<g clip-path="url(#clip0_1042_694)">
<path d="M55.3851 21V1.23199H59.7811V21H55.3851ZM58.7451 21V17.192H69.5811V21H58.7451ZM58.7451 12.74V9.07199H68.6011V12.74H58.7451ZM58.7451 5.01199V1.23199H69.4411V5.01199H58.7451Z" fill="#7AEFFF" fill-opacity="0.1"/>
<path d="M30.23 21V1.23199H33.366L41.15 13.356H39.554L47.31 1.23199H50.474V21H46.078V8.65199L46.862 8.84799L41.794 16.744H38.882L33.842 8.84799L34.598 8.65199V21H30.23Z" fill="#7AEFFF" fill-opacity="0.1"/>
<path d="M20.9069 21V1.23199H25.3029V21H20.9069Z" fill="#7AEFFF" fill-opacity="0.1"/>
<path d="M6.74806 21V1.51199H11.1441V21H6.74806ZM0.560059 5.068V1.23199H17.3321V5.068H0.560059Z" fill="#7AEFFF" fill-opacity="0.1"/>
<path fill-rule="evenodd" clip-rule="evenodd" d="M55.3851 22C54.8328 22 54.3851 21.5523 54.3851 21V1.23199C54.3851 0.679709 54.8328 0.231995 55.3851 0.231995H69.4411C69.9934 0.231995 70.4411 0.679709 70.4411 1.23199V5.01199C70.4411 5.56428 69.9934 6.01199 69.4411 6.01199H60.7811V8.07199H68.6011C69.1534 8.07199 69.6011 8.51971 69.6011 9.07199V12.74C69.6011 13.2923 69.1534 13.74 68.6011 13.74H60.7811V16.192H69.5811C70.1334 16.192 70.5811 16.6397 70.5811 17.192V21C70.5811 21.5523 70.1334 22 69.5811 22H55.3851ZM69.5811 21V17.192H59.7811V12.74H68.6011V9.07199H59.7811V5.01199H69.4411V1.23199H55.3851V21H69.5811Z" fill="#7AEFFF"/>
<path fill-rule="evenodd" clip-rule="evenodd" d="M30.23 22C29.6777 22 29.23 21.5523 29.23 21V1.23199C29.23 0.679709 29.6777 0.231995 30.23 0.231995H33.366C33.7065 0.231995 34.0235 0.405224 34.2075 0.691728L40.349 10.2575L46.4676 0.693106C46.6514 0.405811 46.9689 0.231995 47.31 0.231995H50.474C51.0263 0.231995 51.474 0.679709 51.474 1.23199V21C51.474 21.5523 51.0263 22 50.474 22H46.078C45.5257 22 45.078 21.5523 45.078 21V13.4788L42.6355 17.2841C42.4516 17.5707 42.1345 17.744 41.794 17.744H38.882C38.5406 17.744 38.2227 17.5698 38.0391 17.282L35.598 13.4577V21C35.598 21.5523 35.1503 22 34.598 22H30.23ZM34.598 10.0324L38.882 16.744H41.794L46.078 10.0695V21H50.474V1.23199H47.31L40.3505 12.1108L33.366 1.23199H30.23V21H34.598V10.0324Z" fill="#7AEFFF"/>
<path fill-rule="evenodd" clip-rule="evenodd" d="M20.9069 22C20.3546 22 19.9069 21.5523 19.9069 21V1.23199C19.9069 0.679709 20.3546 0.231995 20.9069 0.231995H25.3029C25.8551 0.231995 26.3029 0.679709 26.3029 1.23199V21C26.3029 21.5523 25.8551 22 25.3029 22H20.9069ZM20.9069 21H25.3029V1.23199H20.9069V21Z" fill="#7AEFFF"/>
<path fill-rule="evenodd" clip-rule="evenodd" d="M6.74806 22C6.19577 22 5.74806 21.5523 5.74806 21V6.068H0.560059C0.00777382 6.068 -0.439941 5.62028 -0.439941 5.068V1.23199C-0.439941 0.679709 0.00777382 0.231995 0.560059 0.231995H17.3321C17.8843 0.231995 18.3321 0.679709 18.3321 1.23199V5.068C18.3321 5.62028 17.8843 6.068 17.3321 6.068H12.1441V21C12.1441 21.5523 11.6963 22 11.1441 22H6.74806ZM11.1441 5.068H17.3321V1.23199H0.560059V5.068H6.74806V21H11.1441V5.068Z" fill="#7AEFFF"/>
</g>
<defs>
<clipPath id="clip0_1042_694">
<rect width="71" height="22" fill="white"/>
</clipPath>
</defs>
</svg>