<svg width="720" height="84" viewBox="0 0 720 84" fill="none" xmlns="http://www.w3.org/2000/svg">
<g filter="url(#filter0_di_876_1815)">
<path d="M10 34C10 20.7452 20.7452 10 34 10H686C699.255 10 710 20.7452 710 34V74H10V34Z" fill="#FF5C00" fill-opacity="0.1" shape-rendering="crispEdges"/>
<path d="M10 34C10 20.7452 20.7452 10 34 10H686C699.255 10 710 20.7452 710 34V74H10V34Z" fill="url(#paint0_linear_876_1815)" fill-opacity="0.2" shape-rendering="crispEdges"/>
<path d="M10.5 34C10.5 21.0213 21.0213 10.5 34 10.5H686C698.979 10.5 709.5 21.0213 709.5 34V73.5H10.5V34Z" stroke="#FFB932" stroke-opacity="0.7" shape-rendering="crispEdges"/>
</g>
<defs>
<filter id="filter0_di_876_1815" x="0" y="0" width="720" height="84" filterUnits="userSpaceOnUse" color-interpolation-filters="sRGB">
<feFlood flood-opacity="0" result="BackgroundImageFix"/>
<feColorMatrix in="SourceAlpha" type="matrix" values="0 0 0 0 0 0 0 0 0 0 0 0 0 0 0 0 0 0 127 0" result="hardAlpha"/>
<feOffset/>
<feGaussianBlur stdDeviation="5"/>
<feComposite in2="hardAlpha" operator="out"/>
<feColorMatrix type="matrix" values="0 0 0 0 1 0 0 0 0 0.3 0 0 0 0 0 0 0 0 0.5 0"/>
<feBlend mode="normal" in2="BackgroundImageFix" result="effect1_dropShadow_876_1815"/>
<feBlend mode="normal" in="SourceGraphic" in2="effect1_dropShadow_876_1815" result="shape"/>
<feColorMatrix in="SourceAlpha" type="matrix" values="0 0 0 0 0 0 0 0 0 0 0 0 0 0 0 0 0 0 127 0" result="hardAlpha"/>
<feOffset/>
<feGaussianBlur stdDeviation="7.5"/>
<feComposite in2="hardAlpha" operator="arithmetic" k2="-1" k3="1"/>
<feColorMatrix type="matrix" values="0 0 0 0 1 0 0 0 0 0.54 0 0 0 0 0 0 0 0 0.5 0"/>
<feBlend mode="normal" in2="shape" result="effect2_innerShadow_876_1815"/>
</filter>
<linearGradient id="paint0_linear_876_1815" x1="10" y1="47.9999" x2="710" y2="47.9999" gradientUnits="userSpaceOnUse">
<stop stop-color="#FFC700"/>
<stop offset="0.501736" stop-color="#FFC700" stop-opacity="0.08"/>
<stop offset="1" stop-color="#FFC700"/>
</linearGradient>
</defs>
</svg>
