<svg width="172" height="30" viewBox="0 0 172 30" fill="none" xmlns="http://www.w3.org/2000/svg">
<path fill-rule="evenodd" clip-rule="evenodd" d="M66.9975 4.5H40.6506V9.01184H66.9975V4.5ZM171.631 4.5282L164.498 4.58452L157.07 11.3992L149.643 4.55636L142.252 4.50004L153.32 14.8347L142.473 24.8033H149.79L156.923 18.1576C158.272 19.3966 159.142 20.1945 159.534 20.5512C160.98 21.8278 162.549 23.2358 164.241 24.7752H171.631L160.674 14.6939L171.631 4.5282ZM26.2907 5.42932V4.55636H20.812V5.42932V6.52755V7.71027V12.5538H13.4211H10.3692H8.01591H5.47877V7.71027V4.55636H0V7.71027V11.2303V14.6376V18.1013V21.5931V24.747H5.47877V21.5931V16.7496H13.4211H20.7752V21.5931V22.7758V23.8741V24.747H26.254V23.8741V22.7758V21.5931V14.6658C26.2785 12.1314 26.2907 9.81287 26.2907 7.71027V6.52755V5.42932ZM87.4236 7.71027V4.55636H81.9448V7.71027V11.2303V14.6376V17.9323V20.5512H81.908V24.747H87.4236H90.9167H95.2188H99.7416H104.411H108.566V20.5512H104.411H99.7784H95.2556H90.9167H87.4236V17.9323V14.6376V11.2303V7.71027ZM128.669 4.55636V7.71027V11.2303V14.6376V18.1013V21.5931V24.747H123.19V21.5931V18.1013V14.6376V11.2303V7.71027V4.55636H128.669ZM40.6494 20.2915H66.9963V24.8033H40.6494V20.2915ZM66.9963 12.7716H40.6494V16.5315H66.9963V12.7716Z" fill="#EDEDED"/>
</svg>
