<svg width="374" height="46" viewBox="0 0 374 46" fill="none" xmlns="http://www.w3.org/2000/svg">
<path d="M0 0H374V22C374 35.2548 363.255 46 350 46H24C10.7452 46 0 35.2548 0 22V0Z" fill="#0566D9" fill-opacity="0.6"/>
<path d="M0 0H374V22C374 35.2548 363.255 46 350 46H24C10.7452 46 0 35.2548 0 22V0Z" fill="url(#paint0_linear_849_1671)" fill-opacity="0.7"/>
<path d="M353.146 22.8334H338.833C338.597 22.8334 338.399 22.7534 338.24 22.5934C338.081 22.4334 338.001 22.2356 338 22.0001C338 21.7639 338.08 21.5662 338.24 21.4067C338.4 21.2473 338.598 21.1673 338.833 21.1667H353.146L349.062 17.0834C348.896 16.9167 348.816 16.7223 348.823 16.5001C348.829 16.2778 348.916 16.0834 349.083 15.9167C349.25 15.7639 349.444 15.6839 349.667 15.6767C349.889 15.6695 350.083 15.7495 350.25 15.9167L355.75 21.4167C355.833 21.5001 355.893 21.5903 355.928 21.6876C355.963 21.7848 355.98 21.8889 355.979 22.0001C355.979 22.1112 355.962 22.2153 355.928 22.3126C355.893 22.4098 355.834 22.5001 355.75 22.5834L350.25 28.0834C350.097 28.2362 349.906 28.3126 349.677 28.3126C349.449 28.3126 349.251 28.2362 349.083 28.0834C348.917 27.9167 348.833 27.7189 348.833 27.4901C348.833 27.2612 348.917 27.0631 349.083 26.8959L353.146 22.8334Z" fill="#B3E9FF"/>
<defs>
<linearGradient id="paint0_linear_849_1671" x1="195.5" y1="-167" x2="374" y2="53" gradientUnits="userSpaceOnUse">
<stop stop-color="#00C2FF"/>
<stop offset="0.329133" stop-color="#00779D" stop-opacity="0.02"/>
<stop offset="0.694444" stop-color="#00779D" stop-opacity="0"/>
<stop offset="1" stop-color="#00C2FF"/>
</linearGradient>
</defs>
</svg>
