<svg width="41" height="41" viewBox="0 0 41 41" fill="none" xmlns="http://www.w3.org/2000/svg">
<path d="M33.1729 16.9071C33.1729 20.4965 32.0172 23.8122 30.0701 26.5023L39.8905 36.4103C40.8601 37.3879 40.8601 38.9753 39.8905 39.9528C38.9209 40.9303 37.3462 40.9303 36.3766 39.9528L26.5562 30.0448C23.8878 32.0155 20.5988 33.1728 17.0384 33.1728C8.12558 33.1728 0.903809 25.8924 0.903809 16.9071C0.903809 7.92189 8.12558 0.641418 17.0384 0.641418C25.9512 0.641418 33.1729 7.92189 33.1729 16.9071ZM17.0384 28.168C18.5053 28.168 19.9578 27.8767 21.313 27.3108C22.6682 26.7449 23.8996 25.9154 24.9368 24.8698C25.9741 23.8241 26.7968 22.5827 27.3582 21.2165C27.9195 19.8503 28.2085 18.3859 28.2085 16.9071C28.2085 15.4283 27.9195 13.964 27.3582 12.5978C26.7968 11.2315 25.9741 9.99016 24.9368 8.94449C23.8996 7.89882 22.6682 7.06935 21.313 6.50344C19.9578 5.93753 18.5053 5.64625 17.0384 5.64625C15.5715 5.64625 14.119 5.93753 12.7638 6.50344C11.4086 7.06935 10.1772 7.89882 9.13993 8.94449C8.1027 9.99016 7.27991 11.2315 6.71856 12.5978C6.15721 13.964 5.86829 15.4283 5.86829 16.9071C5.86829 18.3859 6.15721 19.8503 6.71856 21.2165C7.27991 22.5827 8.1027 23.8241 9.13993 24.8698C10.1772 25.9154 11.4086 26.7449 12.7638 27.3108C14.119 27.8767 15.5715 28.168 17.0384 28.168Z" fill="#04231F"/>
</svg>
