<svg width="39" height="40" viewBox="0 0 39 40" fill="none" xmlns="http://www.w3.org/2000/svg">
<path d="M26.8884 19.6614C26.8884 21.3417 26.7983 22.9615 26.6407 24.5055H12.7238C12.5587 22.9615 12.4761 21.3417 12.4761 19.6614C12.4761 17.9811 12.5662 16.3614 12.7238 14.8173H26.6407C26.8058 16.3614 26.8884 17.9811 26.8884 19.6614ZM29.0502 14.8173H38.2906C38.6885 16.369 38.8987 17.9887 38.8987 19.6614C38.8987 21.3342 38.6885 22.9539 38.2906 24.5055H29.0502C29.2079 22.9463 29.2904 21.3266 29.2904 19.6614C29.2904 17.9963 29.2079 16.3765 29.0502 14.8173ZM37.5025 12.3953H28.7425C27.9918 7.55875 26.5056 3.50939 24.5914 0.920822C30.4689 2.48759 35.2505 6.78672 37.495 12.3953H37.5025ZM26.3104 12.3953H13.0541C13.512 9.6402 14.2176 7.20301 15.0808 5.22753C15.869 3.44127 16.7472 2.14698 17.5955 1.32954C18.4362 0.527239 19.1343 0.285034 19.6822 0.285034C20.2302 0.285034 20.9283 0.527239 21.769 1.32954C22.6172 2.14698 23.4955 3.44127 24.2837 5.22753C25.1544 7.19544 25.8525 9.63263 26.3104 12.3953ZM10.622 12.3953H1.86201C4.11394 6.78672 8.88802 2.48759 14.773 0.920822C12.8589 3.50939 11.3726 7.55875 10.622 12.3953ZM1.07384 14.8173H10.3142C10.1566 16.3765 10.074 17.9963 10.074 19.6614C10.074 21.3266 10.1566 22.9463 10.3142 24.5055H1.07384C0.676 22.9539 0.46582 21.3342 0.46582 19.6614C0.46582 17.9887 0.676 16.369 1.07384 14.8173ZM15.0808 34.0878C14.2101 32.1198 13.512 29.6827 13.0541 26.9276H26.3104C25.8525 29.6827 25.1469 32.1198 24.2837 34.0878C23.4955 35.874 22.6172 37.1683 21.769 37.9857C20.9283 38.7956 20.2302 39.0378 19.6822 39.0378C19.1343 39.0378 18.4362 38.7956 17.5955 37.9933C16.7472 37.1759 15.869 35.8816 15.0808 34.0953V34.0878ZM10.622 26.9276C11.3726 31.7641 12.8589 35.8135 14.773 38.402C8.88802 36.8353 4.11394 32.5361 1.86201 26.9276H10.622ZM37.5025 26.9276C35.2505 32.5361 30.4765 36.8353 24.5989 38.402C26.5131 35.8135 27.9918 31.7641 28.75 26.9276H37.5025Z" fill="#04231F"/>
</svg>
